<svg xmlns="http://www.w3.org/2000/svg" width="84.002" height="84"><g fill="none"><path d="M-.003 0v84h84V0z"/><path d="M14.997 73.999v3h-13v-69h61v69h-13v-3z" stroke="#fe0617" stroke-linecap="round" stroke-linejoin="round" stroke-miterlimit="79.84" stroke-width="2"/><path d="M14.514 73.995V24.502H50.49v49.493M21.002 18.998l4-4 4 4m8-4l4 4 4-4m-12.5 9.503v10.995m0 27.012v11.987m-3-30.994v10.995" stroke="#fe0617" stroke-linecap="round" stroke-linejoin="round" stroke-miterlimit="79.84"/><path d="M39.502 55.499v6h-2l-8-7h-7v-11h7l8-7h2v6m-3.997 10.997l7.987-8m-7.987.003l7.987 8" stroke="#fe0617" stroke-linecap="round" stroke-linejoin="round" stroke-miterlimit="79.84"/></g></svg>