<svg xmlns="http://www.w3.org/2000/svg" width="84.004" height="84"><g fill="none"><path d="M0 0v84h84V0z"/><path d="M2.001 70.001l-1-4 10-9v-43h62v43l10 9-1 4z" stroke="#fe0617" stroke-linecap="round" stroke-linejoin="round" stroke-miterlimit="79.84" stroke-width="2"/><path d="M11.501 57.501h61m-61 4.5h62.5m-37.003 4h11.507M25.162 44.494c4.075 0 6.239-5.4 8.15-9.494 1.788-3.825 4.075-9.494 8.15-9.494" stroke="#fe0617" stroke-linecap="round" stroke-linejoin="round" stroke-miterlimit="79.84"/><path d="M57.762 44.494c-4.075 0-6.239-5.4-8.15-9.494-1.788-3.825-4.075-9.494-8.151-9.494m16.301 18.988c2.545 0 4.344-2.107 5.8-4.684m-38.4 4.684c-4.076 0-6.24-5.4-8.151-9.494m-.51-.5h51m-4.001-2l4.005 2m-4.005 2l4.005-2" stroke="#fe0617" stroke-linecap="round" stroke-linejoin="round" stroke-miterlimit="79.84"/></g></svg>