<svg xmlns="http://www.w3.org/2000/svg" width="84.002" height="84"><g fill="none"><path d="M-.004 0v84h84V0z"/><path d="M9.002 12.997v56h56v-56z" stroke="red" stroke-miterlimit="79.84" stroke-width="2"/><path d="M15.483 12.953v-7c.005-1.869 3.012-2.063 3 0v7m7 0v-7c.005-1.869 3.012-2.063 3 0v7m7.001 0v-7c.005-1.869 3.012-2.063 3 0v7m7 0v-7c.005-1.869 3.012-2.063 3 0v7m7 0v-7c.005-1.869 3.012-2.063 3 0v7M15.483 68.954v7c.005 1.869 3.012 2.063 3 0v-7m7 0v7c.005 1.869 3.012 2.063 3 0v-7m7.001 0v7c.005 1.869 3.012 2.063 3 0v-7m7 0v7c.005 1.869 3.012 2.063 3 0v-7m7 0v7c.005 1.869 3.012 2.063 3 0v-7m6.5-49.501h7c1.869.005 2.063 3.012 0 3h-7m0 7h7c1.869.005 2.063 3.012 0 3h-7m0 7h7c1.869.005 2.063 3.012 0 3h-7m0 7.001h7c1.869.005 2.063 3.012 0 3h-7m0 7h7c1.869.005 2.063 3.012 0 3h-7M8.983 19.453h-7c-1.869.005-2.063 3.012 0 3h7m0 7h-7c-1.869.005-2.063 3.012 0 3h7m0 7h-7c-1.869.005-2.063 3.012 0 3h7m0 7.001h-7c-1.869.005-2.063 3.012 0 3h7m0 7h-7c-1.869.005-2.063 3.012 0 3h7m36.519 5.545v-19l8.453-7.016" stroke="#fe0617" stroke-linecap="round" stroke-linejoin="round" stroke-miterlimit="79.84"/><path d="M55.502 42.499a2 2 0 01-2-2 2 2 0 012-2 2 2 0 012 2 2 2 0 01-2 2z" stroke="red" stroke-miterlimit="79.84"/><path d="M55.502 68.499v-12" stroke="#fe0617" stroke-linecap="round" stroke-linejoin="round" stroke-miterlimit="79.84"/><path d="M55.502 56.499a2 2 0 01-2-2 2 2 0 012-2 2 2 0 012 2 2 2 0 01-2 2z" stroke="red" stroke-miterlimit="79.84"/><path d="M37.502 68.499v-46" stroke="#fe0617" stroke-linecap="round" stroke-linejoin="round" stroke-miterlimit="79.84"/><path d="M37.505 22.496a2 2 0 01-2-2 2 2 0 012-2 2 2 0 012 2 2 2 0 01-2 2z" stroke="red" stroke-miterlimit="79.84"/><path d="M28.502 67.999v-30l-8.5-8" stroke="#fe0617" stroke-linecap="round" stroke-linejoin="round" stroke-miterlimit="79.84"/><path d="M18.502 30.499a2 2 0 002-2 2 2 0 00-2-2 2 2 0 00-2 2 2 2 0 002 2z" stroke="red" stroke-miterlimit="79.84"/><path d="M18.502 68.499v-12" stroke="#fe0617" stroke-linecap="round" stroke-linejoin="round" stroke-miterlimit="79.84"/><path d="M18.502 56.499a2 2 0 01-2-2 2 2 0 012-2 2 2 0 012 2 2 2 0 01-2 2z" stroke="red" stroke-miterlimit="79.84"/></g></svg>