<svg xmlns="http://www.w3.org/2000/svg" width="84.002" height="84"><g fill="none"><path d="M-.001 0v84h84V0z"/><path d="M.999 49.999h24c8.124 0 10.573 3.024 15 4l9 2c2.1.736 3.693 2.8 3 6l14-4c5-1 6.187 1.048 8 4l-28 13c-2.889 2.352-6.528 2.757-11 1l-22-7v3h-12z" stroke="#fe0617" stroke-linecap="round" stroke-linejoin="round" stroke-miterlimit="79.84" stroke-width="2"/><path d="M12.499 50.499v19m39.174-7.86c-.687 1.968-2.875 2.373-4.375 2.187l-11.3-.827h-5" stroke="#fe0617" stroke-linecap="round" stroke-linejoin="round" stroke-miterlimit="79.84"/><path d="M43.999 3.998c-8 0-15 5-15 14s4.323 11.471 8 16v5c0 6 2 8 7 8s7-2 7-8v-5c3.677-4.529 8-7 8-16s-7-14-15-14" stroke="#fe0617" stroke-linecap="round" stroke-linejoin="round" stroke-miterlimit="79.84" stroke-width="2"/><path d="M37.499 34.499h13m-12.5-12.5l4-4 4 4 4-4m13.5.499h5m-6-9l3.751-1.5m-4.251 19.699l4 1.6m-41.5-10.799h-5m6-9l-3.751-1.5m4.251 19.699l-4 1.6" stroke="#fe0617" stroke-linecap="round" stroke-linejoin="round" stroke-miterlimit="79.84"/></g></svg>