<svg xmlns="http://www.w3.org/2000/svg" width="84.004" height="84"><g fill="none"><path d="M-.001 0v84h84V0z"/><path d="M18.082 73.083c0-.2.011-.415.023-.632l.268-5.261a30.428 30.428 0 01-8.56-8.56l-5.261.268a17.72 17.72 0 01-.632.023 35.3 35.3 0 01-2.864-6.9q.224-.216.465-.435l3.907-3.531A30.19 30.19 0 014.82 42a30.335 30.335 0 01.608-6.057l-3.907-3.528a15.137 15.137 0 01-.464-.433 35.177 35.177 0 012.863-6.9c.2 0 .415.011.632.021l5.261.269a30.429 30.429 0 018.56-8.56l-.268-5.263a17.582 17.582 0 01-.023-.631 35.177 35.177 0 016.9-2.863q.216.222.435.463l3.527 3.908a30.336 30.336 0 016.059-.609 30.333 30.333 0 016.057.609l3.528-3.908c.144-.16.289-.315.433-.464a35.3 35.3 0 016.9 2.864c0 .2-.011.415-.021.631l-.269 5.263a30.428 30.428 0 018.56 8.56l5.263-.269c.216-.011.427-.017.631-.021a35.2 35.2 0 012.863 6.9c-.148.144-.3.289-.464.435l-3.908 3.527a30.249 30.249 0 01.611 6.059 30.244 30.244 0 01-.611 6.06l3.908 3.525c.161.145.316.292.464.436a35.2 35.2 0 01-2.863 6.9c-.2 0-.415-.011-.631-.023l-5.263-.268a30.428 30.428 0 01-8.56 8.56l.269 5.261c.011.217.017.428.021.632a35.2 35.2 0 01-6.9 2.863c-.144-.148-.291-.3-.435-.465l-3.529-3.905a30.32 30.32 0 01-6.056.608 30.256 30.256 0 01-6.06-.609l-3.525 3.907q-.22.244-.436.465a35.2 35.2 0 01-6.9-2.863z" stroke="#fe0617" stroke-linecap="round" stroke-linejoin="round" stroke-miterlimit="79.84" stroke-width="2.109"/><path d="M45.554 25.595a19.493 19.493 0 018.956 16.4 19.514 19.514 0 01-19.511 19.513 19.482 19.482 0 01-5.568-.808m-5.239-2.468a19.492 19.492 0 01-8.7-16.234 19.514 19.514 0 0119.507-19.503 19.49 19.49 0 015.955.927" stroke="#fe0617" stroke-linecap="round" stroke-linejoin="round" stroke-miterlimit="79.84"/><path d="M45.499 31.499l.012-6h5.976m-26.988 27l-.012 6h-5.976m8.339-17.053l6.5 5.7 10.3-10.3" stroke="#fe0617" stroke-linecap="round" stroke-linejoin="round" stroke-miterlimit="79.84"/></g></svg>