<svg xmlns="http://www.w3.org/2000/svg" width="84.008" height="84"><path d="M.002 0v84h84V0z" fill="none"/><path d="M75.012 23.989H1.002v36.024h74.01z" fill="none" stroke="#fe0617" stroke-miterlimit="79.84" stroke-width="2"/><path d="M71.509 27.492H4.502V56.51h67.006z" fill="none" stroke="#fe0617" stroke-miterlimit="79.84"/><path d="M38.502 14.498v-12m13.094 12.927l2.821-8.851m9.165 11.851l2.851-5.851m-41.016 2.851l-2.821-8.851m-9.165 11.851l-2.851-5.851m27.922 56.779v12m13.094-12.926l2.821 8.851m9.165-11.851l2.851 5.851m-41.016-2.851l-2.821 8.851m-9.165-11.851l-2.851 5.851" fill="none" stroke="#fe0617" stroke-linecap="round" stroke-linejoin="round" stroke-miterlimit="79.84"/><path d="M11.002 33a1 1 0 011 1 1 1 0 01-1 1 1 1 0 01-1-1 1 1 0 011-1zm0 8a1 1 0 011 1 1 1 0 01-1 1 1 1 0 01-1-1 1 1 0 011-1zm0 8.005a1 1 0 011 1 1 1 0 01-1 1 1 1 0 01-1-1 1 1 0 011-1zm9-16.005a1 1 0 011 1 1 1 0 01-1 1 1 1 0 01-1-1 1 1 0 011-1zm0 8a1 1 0 011 1 1 1 0 01-1 1 1 1 0 01-1-1 1 1 0 011-1zm0 8.005a1 1 0 011 1 1 1 0 01-1 1 1 1 0 01-1-1 1 1 0 011-1zm9-16.005a1 1 0 011 1 1 1 0 01-1 1 1 1 0 01-1-1 1 1 0 011-1zm0 8a1 1 0 011 1 1 1 0 01-1 1 1 1 0 01-1-1 1 1 0 011-1zm0 8.005a1 1 0 011 1 1 1 0 01-1 1 1 1 0 01-1-1 1 1 0 011-1zm9-16.005a1 1 0 011 1 1 1 0 01-1 1 1 1 0 01-1-1 1 1 0 011-1zm0 8a1 1 0 011 1 1 1 0 01-1 1 1 1 0 01-1-1 1 1 0 011-1zm0 8.005a1 1 0 011 1 1 1 0 01-1 1 1 1 0 01-1-1 1 1 0 011-1zm9-16.005a1 1 0 011 1 1 1 0 01-1 1 1 1 0 01-1-1 1 1 0 011-1zm0 8a1 1 0 011 1 1 1 0 01-1 1 1 1 0 01-1-1 1 1 0 011-1zm0 8.005a1 1 0 011 1 1 1 0 01-1 1 1 1 0 01-1-1 1 1 0 011-1zM56.007 33a1 1 0 011 1 1 1 0 01-1 1 1 1 0 01-1-1 1 1 0 011-1zm0 8a1 1 0 011 1 1 1 0 01-1 1 1 1 0 01-1-1 1 1 0 011-1zm0 8.005a1 1 0 011 1 1 1 0 01-1 1 1 1 0 01-1-1 1 1 0 011-1zM65.008 33a1 1 0 011 1 1 1 0 01-1 1 1 1 0 01-1-1 1 1 0 011-1zm0 8a1 1 0 011 1 1 1 0 01-1 1 1 1 0 01-1-1 1 1 0 011-1zm0 8.005a1 1 0 011 1 1 1 0 01-1 1 1 1 0 01-1-1 1 1 0 011-1z" fill="#fe0617" fill-rule="evenodd"/></svg>