<svg xmlns="http://www.w3.org/2000/svg" width="84.004" height="84"><g fill="none"><path d="M0 0v84h84V0z"/><path d="M3.001 71.002l16-47h47l16 47zm39.502-47.009a7.5 7.5 0 01-7.492-7.494 7.5 7.5 0 017.492-7.494 7.5 7.5 0 017.492 7.494 7.5 7.5 0 01-7.492 7.494z" stroke="#fe0617" stroke-linecap="round" stroke-linejoin="round" stroke-miterlimit="79.84" stroke-width="2"/><path d="M27.502 60.501h30m-23-2v-22m5.001 4.999l-5-5m-5.001 5l5-5m16.001 22.001v-22m5 4.999l-5-5m-5 5l5-5" stroke="#fe0617" stroke-linecap="round" stroke-linejoin="round" stroke-miterlimit="79.84"/></g></svg>