<svg xmlns="http://www.w3.org/2000/svg" width="84.015" height="84"><g fill="none"><path d="M.012 0v84h84V0z"/><path d="M1 8.994v66.012h26.024V8.994zm44.002 0v66.012h26.024V8.994z" stroke="#fe0617" stroke-miterlimit="79.84" stroke-width="2"/><path d="M28.012 10.999h16m-16 62.003h16" stroke="#fe0617" stroke-linecap="round" stroke-linejoin="round" stroke-miterlimit="79.84" stroke-width="2"/><path d="M70.512 33.5h-15m5-5l-5 5m5 5l-5-5m-10 20.001h15m-5-5l5 5m-5 5l5-5m-59-20.001h15m-5-5l5 5m-5 5l5-5m10 20.001h-15m5-5l-5 5m5 5l-5-5m16 16h17m-17-55.001h17" stroke="#fe0617" stroke-linecap="round" stroke-linejoin="round" stroke-miterlimit="79.84"/></g></svg>