<svg xmlns="http://www.w3.org/2000/svg" width="381" height="44"><g data-name="Сгруппировать 7" fill="#ff0518"><path data-name="Контур 38" d="M8.2 31.7a5.51 5.51 0 001.7 2 9.65 9.65 0 002.5 1.2 15.438 15.438 0 003 .4 17.959 17.959 0 002.2-.2 5.678 5.678 0 002.2-.7 4.887 4.887 0 001.8-1.4 3.232 3.232 0 00.7-2.2 2.869 2.869 0 00-.9-2.3A7.042 7.042 0 0019 27a15.156 15.156 0 00-3.4-1c-1.3-.3-2.5-.6-3.9-1a29.066 29.066 0 01-3.9-1.2 12.457 12.457 0 01-3.4-1.9A8.492 8.492 0 012 19a8.712 8.712 0 01-.9-4.2A9.5 9.5 0 012.3 10a11.163 11.163 0 013.1-3.4 13.036 13.036 0 014.3-2 19.725 19.725 0 014.8-.6 23.517 23.517 0 015.4.6 14.613 14.613 0 014.6 2 10.155 10.155 0 013.2 3.6 10.922 10.922 0 011.2 5.3h-7.6a6.664 6.664 0 00-.7-2.7 4.629 4.629 0 00-1.5-1.6 7.261 7.261 0 00-2.2-.9 11.416 11.416 0 00-2.7-.2 12.252 12.252 0 00-1.9.2 5.094 5.094 0 00-1.7.7 7.41 7.41 0 00-1.3 1.2 3.557 3.557 0 00-.5 1.9 2.861 2.861 0 00.4 1.7 4.4 4.4 0 001.6 1.2 23.255 23.255 0 003.2 1.1c1.4.4 3.2.8 5.4 1.4.7.1 1.6.4 2.8.7a12.58 12.58 0 013.5 1.7 9.884 9.884 0 013 3.1 8.326 8.326 0 011.3 4.9 9.883 9.883 0 01-1 4.5 9.775 9.775 0 01-2.8 3.6 14.278 14.278 0 01-4.6 2.4 21.167 21.167 0 01-6.4.8 21.206 21.206 0 01-5.7-.7 13.827 13.827 0 01-4.9-2.3 11.158 11.158 0 01-3.4-4A12.611 12.611 0 010 28.5h7.6a5.272 5.272 0 00.6 3.2z"/><path data-name="Контур 39" d="M54.9 4.8l13.3 35.7h-8.1l-2.7-8H44l-2.8 8h-7.9L46.8 4.8h8.1zm.4 21.9l-4.5-13.1h-.1l-4.6 13.1z"/><path data-name="Контур 40" d="M81.6 4.8l14.9 24h.1v-24h7.4v35.7h-7.9L81.3 16.6h-.1v23.9h-7.3V4.8z"/><path data-name="Контур 41" d="M109.5 4.8h8.8l8.4 14.1L135 4.8h8.8l-13.2 22v13.7h-7.8V26.6z"/><path data-name="Контур 42" d="M148.9 15.4a17.684 17.684 0 013.4-6 15.945 15.945 0 015.5-4 19 19 0 0114.8 0 15.945 15.945 0 015.5 4 17.684 17.684 0 013.4 6 22.513 22.513 0 011.2 7.4 21.919 21.919 0 01-1.2 7.3 18.213 18.213 0 01-3.4 5.9 14.526 14.526 0 01-5.5 3.9 17.458 17.458 0 01-7.4 1.4 19.51 19.51 0 01-7.4-1.4 17.1 17.1 0 01-5.5-3.9 16.334 16.334 0 01-3.4-5.9 21.5 21.5 0 01-1.2-7.3 22.088 22.088 0 011.2-7.4zm7.2 11.8a11.933 11.933 0 001.7 3.8 9.718 9.718 0 003 2.7 10.625 10.625 0 009 0 9.718 9.718 0 003-2.7 11.933 11.933 0 001.7-3.8 16.068 16.068 0 00.5-4.4 21.381 21.381 0 00-.5-4.5 10.541 10.541 0 00-1.7-3.9 8.911 8.911 0 00-3-2.8 10.625 10.625 0 00-9 0 8.911 8.911 0 00-3 2.8 12.486 12.486 0 00-1.7 3.9 16.8 16.8 0 00-.5 4.5 12.96 12.96 0 00.5 4.4z"/></g><g data-name="Сгруппировать 8" fill="#222"><path data-name="Контур 43" d="M240.1 5.1v1.3h-6.4V10h5.9v1.3h-5.9v4h6.4v1.2h-7.9V5.1z"/><path data-name="Контур 44" d="M244.3 5.1v10.1h6v1.3h-7.6V5.1z"/><path data-name="Контур 45" d="M260.4 5.1v1.3H254V10h5.9v1.3H254v4h6.4v1.2h-7.9V5.1z"/><path data-name="Контур 46" d="M265.9 16.5l-4-11.4h1.6l3.3 9.9 3.3-9.9h1.6l-4.1 11.4z"/><path data-name="Контур 47" d="M277.7 5.1l4.5 11.4h-1.7l-1.2-3.4h-4.8l-1.3 3.4h-1.6L276 5.1zm1.1 6.7l-1.9-5.3-1.9 5.3z"/><path data-name="Контур 48" d="M281.4 6.4V5.1h9.1v1.3h-3.8v10.1h-1.5V6.4z"/><path data-name="Контур 49" d="M292.3 8.5a5.735 5.735 0 011-1.9 4.532 4.532 0 011.7-1.3 6.01 6.01 0 014.8 0 4.532 4.532 0 011.7 1.3 4.982 4.982 0 011 1.9 8.217 8.217 0 010 4.4 5.735 5.735 0 01-1 1.9 4.31 4.31 0 01-1.7 1.3 6.01 6.01 0 01-4.8 0 4.533 4.533 0 01-1.7-1.3 5.734 5.734 0 01-1-1.9 8.329 8.329 0 01-.3-2.2 8.919 8.919 0 01.3-2.2zm1.4 4a3.479 3.479 0 00.7 1.5 4.263 4.263 0 001.2 1.1 4.25 4.25 0 003.6 0 3.179 3.179 0 001.2-1.1 5.066 5.066 0 00.7-1.5 9.852 9.852 0 00.2-1.7 9.852 9.852 0 00-.2-1.7 3.479 3.479 0 00-.7-1.5 4.263 4.263 0 00-1.2-1.1 4.25 4.25 0 00-3.6 0 3.179 3.179 0 00-1.2 1.1 4.128 4.128 0 00-.7 1.5 8.806 8.806 0 00-.2 1.7 9.852 9.852 0 00.2 1.7z"/><path data-name="Контур 50" d="M311 5.1a4.237 4.237 0 012.6.8 2.5 2.5 0 01.9 2.2 3.453 3.453 0 01-.5 1.8 2.492 2.492 0 01-1.5 1.1 6.89 6.89 0 01.8.3 1.2 1.2 0 01.5.5 4.872 4.872 0 01.3.7 2.2 2.2 0 01.1.8v.8a1.949 1.949 0 00.1.8c.1.2.1.5.2.8a1.612 1.612 0 00.4.7h-1.7a.764.764 0 01-.2-.5c0-.2-.1-.4-.1-.7v-.8a1.949 1.949 0 00-.1-.8 2.353 2.353 0 00-.2-.8c-.1-.2-.2-.5-.3-.7a1 1 0 00-.5-.4 2 2 0 00-.9-.2h-3.7v5h-1.5V5.1zm.3 5.2a6.89 6.89 0 00.8-.3c.2-.1.4-.4.6-.6a1.5 1.5 0 00.2-1 2.168 2.168 0 00-.5-1.4c-.3-.4-.8-.5-1.6-.5H307v4h3.2a2.344 2.344 0 011.1-.2z"/><path data-name="Контур 51" d="M323.1 6.6a3.077 3.077 0 00-1.9-.6 2.769 2.769 0 00-.9.1 6.889 6.889 0 00-.8.3 1.7 1.7 0 00-.6.6 2.92 2.92 0 00-.2.9 1.4 1.4 0 00.3.9 2.178 2.178 0 00.8.5 3.5 3.5 0 001.2.3c.4.1.9.2 1.3.3a6.468 6.468 0 011.3.4 3.38 3.38 0 011.2.6 3.45 3.45 0 01.8.9 2.9 2.9 0 01.3 1.4 2.934 2.934 0 01-.4 1.6 5.241 5.241 0 01-1 1.1 3.506 3.506 0 01-1.4.6 8.752 8.752 0 01-1.6.2 11.018 11.018 0 01-1.8-.2 5.226 5.226 0 01-1.5-.7 2.94 2.94 0 01-1-1.2 4.776 4.776 0 01-.4-1.8h1.4a2.133 2.133 0 00.3 1.2 5.494 5.494 0 00.7.9 3.7 3.7 0 001.1.5 5.019 5.019 0 001.2.2 3.4 3.4 0 001-.1 9.439 9.439 0 00.9-.3 4.351 4.351 0 00.7-.6 1.817 1.817 0 000-2 2.407 2.407 0 00-.8-.6 3.374 3.374 0 00-1.2-.4c-.4-.1-.9-.2-1.3-.3a4.951 4.951 0 01-1.3-.4c-.4-.2-.8-.3-1.2-.5a3.043 3.043 0 01-.8-.8 2.5 2.5 0 01-.3-1.3 2.41 2.41 0 01.4-1.5 2.189 2.189 0 01.9-1 3.1 3.1 0 011.3-.6 6.1 6.1 0 013.1 0 3.293 3.293 0 011.3.7 3.126 3.126 0 01.9 1.1 6.222 6.222 0 01.4 1.6h-1.4a3.153 3.153 0 00-1-2z"/></g><g data-name="Сгруппировать 9" fill="#222"><path data-name="Контур 52" d="M237 27.1l4.5 11.4h-1.7l-1.2-3.4h-4.8l-1.3 3.4h-1.6l4.4-11.4zm1.1 6.7l-1.9-5.3-1.9 5.3z"/><path data-name="Контур 53" d="M245 27.1l6 9.3v-9.3h1.4v11.4h-1.7l-6-9.2v9.2h-1.4V27.1z"/><path data-name="Контур 54" d="M259.7 27.1a5.776 5.776 0 014.1 1.3 5.643 5.643 0 011.4 4.1 10.32 10.32 0 01-.3 2.6 3.861 3.861 0 01-1 1.9 4.344 4.344 0 01-1.7 1.2 6.249 6.249 0 01-2.5.4h-3.9V27.1zm.1 10.1h.6a2.353 2.353 0 00.8-.2 3.552 3.552 0 00.9-.4 6.034 6.034 0 00.8-.8 6.658 6.658 0 00.6-1.2 8.2 8.2 0 000-3.6 3.694 3.694 0 00-.7-1.4 2.73 2.73 0 00-1.2-.9 4.844 4.844 0 00-1.8-.3h-2.6v8.9h2.6z"/><path data-name="Контур 55" d="M281 27.1v1.3h-6.4V32h5.9v1.3h-5.9v4h6.4v1.2h-7.9V27.1z"/><path data-name="Контур 56" d="M289.4 28.6a3.077 3.077 0 00-1.9-.6 2.769 2.769 0 00-.9.1 6.889 6.889 0 00-.8.3 1.7 1.7 0 00-.6.6 2.92 2.92 0 00-.2.9 1.4 1.4 0 00.3.9 2.177 2.177 0 00.8.5 3.5 3.5 0 001.2.3c.4.1.9.2 1.3.3a6.468 6.468 0 011.3.4 3.38 3.38 0 011.2.6 3.239 3.239 0 01.8.9 2.649 2.649 0 01.3 1.4 2.934 2.934 0 01-.4 1.6 5.241 5.241 0 01-1 1.1 3.506 3.506 0 01-1.4.6 8.753 8.753 0 01-1.6.2 11.018 11.018 0 01-1.8-.2 5.226 5.226 0 01-1.5-.7 2.94 2.94 0 01-1-1.2 4.776 4.776 0 01-.4-1.8h1.4a2.133 2.133 0 00.3 1.2 5.5 5.5 0 00.7.9 3.7 3.7 0 001.1.5 5.019 5.019 0 001.2.2 3.4 3.4 0 001-.1 9.439 9.439 0 00.9-.3 4.351 4.351 0 00.7-.6 1.817 1.817 0 000-2 5.548 5.548 0 00-.8-.6 3.374 3.374 0 00-1.2-.4c-.4-.1-.9-.2-1.3-.3a4.951 4.951 0 01-1.3-.4 6.118 6.118 0 01-1.2-.5 2.047 2.047 0 01-.8-.8 2.5 2.5 0 01-.3-1.3 2.41 2.41 0 01.4-1.5 2.189 2.189 0 01.9-1 3.1 3.1 0 011.3-.6 6.1 6.1 0 013.1 0 3.293 3.293 0 011.3.7 3.126 3.126 0 01.9 1.1 7.491 7.491 0 01.4 1.6h-1.4a3.153 3.153 0 00-1-2z"/><path data-name="Контур 57" d="M301.7 28.7a3.7 3.7 0 00-2.1-.6 3.424 3.424 0 00-1.8.4 4 4 0 00-1.2 1 5.226 5.226 0 00-.7 1.5 4.953 4.953 0 00-.2 1.7 8.969 8.969 0 00.2 1.8 3.479 3.479 0 00.7 1.5 2.94 2.94 0 001.2 1 3.425 3.425 0 001.8.4 5.066 5.066 0 001.3-.2 3.512 3.512 0 001.7-1.7 2.768 2.768 0 00.3-1.3h1.5a4.9 4.9 0 01-1.5 3.4 4.794 4.794 0 01-3.5 1.2 5.214 5.214 0 01-2.3-.5 3.435 3.435 0 01-1.6-1.3 5.735 5.735 0 01-1-1.9 8.523 8.523 0 01-.3-2.3 5.867 5.867 0 01.4-2.3 5.735 5.735 0 011-1.9 5.5 5.5 0 011.7-1.3 5.932 5.932 0 012.3-.5 8.807 8.807 0 011.7.2 3.694 3.694 0 011.4.7 2.94 2.94 0 011 1.2 4.284 4.284 0 01.5 1.6h-1.5a2.1 2.1 0 00-1-1.8z"/><path data-name="Контур 58" d="M312 27.1l4.5 11.4h-1.7l-1.2-3.4h-4.8l-1.3 3.4h-1.6l4.4-11.4zm1 6.7l-1.9-5.3-1.9 5.3z"/><path data-name="Контур 59" d="M319.9 27.1v10.1h6v1.3h-7.6V27.1z"/><path data-name="Контур 60" d="M332.8 27.1l4.5 11.4h-1.7l-1.2-3.4h-4.8l-1.3 3.4h-1.6l4.4-11.4zm1.1 6.7l-1.9-5.3-1.9 5.3z"/><path data-name="Контур 61" d="M336.5 28.4v-1.3h9.1v1.3h-3.8v10.1h-1.5V28.4z"/><path data-name="Контур 62" d="M347.4 30.5a5.735 5.735 0 011-1.9 4.31 4.31 0 011.7-1.3 6.01 6.01 0 014.8 0 4.532 4.532 0 011.7 1.3 5.734 5.734 0 011 1.9 8.217 8.217 0 010 4.4 5.734 5.734 0 01-1 1.9 4.532 4.532 0 01-1.7 1.3 6.01 6.01 0 01-4.8 0 4.532 4.532 0 01-1.7-1.3 4.982 4.982 0 01-1-1.9 8.329 8.329 0 01-.3-2.2 8.919 8.919 0 01.3-2.2zm1.4 4a5.226 5.226 0 00.7 1.5 4.263 4.263 0 001.2 1.1 4.25 4.25 0 003.6 0 3.179 3.179 0 001.2-1.1 4.128 4.128 0 00.7-1.5 9.852 9.852 0 00.2-1.7 9.852 9.852 0 00-.2-1.7 5.226 5.226 0 00-.7-1.5 4.263 4.263 0 00-1.2-1.1 4.25 4.25 0 00-3.6 0 3.179 3.179 0 00-1.2 1.1 4.128 4.128 0 00-.7 1.5 9.852 9.852 0 00-.2 1.7 9.855 9.855 0 00.2 1.7z"/><path data-name="Контур 63" d="M366.1 27.1a4.237 4.237 0 012.6.8 2.5 2.5 0 01.9 2.2 3.453 3.453 0 01-.5 1.8 2.492 2.492 0 01-1.5 1.1 6.889 6.889 0 01.8.3 1.205 1.205 0 01.5.5 4.872 4.872 0 01.3.7 2.2 2.2 0 01.1.8v.8a1.949 1.949 0 00.1.8c.1.2.1.5.2.8a1.612 1.612 0 00.4.7h-1.7a.764.764 0 01-.2-.5c0-.2-.1-.4-.1-.7v-.8a1.949 1.949 0 00-.1-.8 2.353 2.353 0 00-.2-.8c-.1-.2-.2-.5-.3-.7a1 1 0 00-.5-.4 2 2 0 00-.9-.2h-3.7v5h-1.5V27.1zm.3 5.2a6.889 6.889 0 00.8-.3c.2-.1.4-.4.6-.6a2.958 2.958 0 00.2-1 2.168 2.168 0 00-.5-1.4c-.3-.4-.8-.5-1.6-.5h-3.8v4h3.2a2.344 2.344 0 011.1-.2z"/><path data-name="Контур 64" d="M378.2 28.6a3.077 3.077 0 00-1.9-.6 2.769 2.769 0 00-.9.1 6.889 6.889 0 00-.8.3 1.7 1.7 0 00-.6.6 2.92 2.92 0 00-.2.9 1.4 1.4 0 00.3.9 2.177 2.177 0 00.8.5 3.5 3.5 0 001.2.3c.4.1.9.2 1.3.3a6.468 6.468 0 011.3.4 3.38 3.38 0 011.2.6 3.45 3.45 0 01.8.9 2.9 2.9 0 01.3 1.4 2.934 2.934 0 01-.4 1.6 5.241 5.241 0 01-1 1.1 3.506 3.506 0 01-1.4.6 8.753 8.753 0 01-1.6.2 11.018 11.018 0 01-1.8-.2 5.226 5.226 0 01-1.5-.7 2.94 2.94 0 01-1-1.2 4.776 4.776 0 01-.4-1.8h1.4a2.133 2.133 0 00.3 1.2 5.494 5.494 0 00.7.9 3.7 3.7 0 001.1.5 5.019 5.019 0 001.2.2 3.4 3.4 0 001-.1 9.439 9.439 0 00.9-.3 4.351 4.351 0 00.7-.6 1.817 1.817 0 000-2 2.407 2.407 0 00-.8-.6 3.374 3.374 0 00-1.2-.4c-.4-.1-.9-.2-1.3-.3a4.951 4.951 0 01-1.3-.4c-.4-.2-.8-.3-1.2-.5a3.043 3.043 0 01-.8-.8 2.5 2.5 0 01-.3-1.3 2.41 2.41 0 01.4-1.5 2.189 2.189 0 01.9-1 3.1 3.1 0 011.3-.6 6.1 6.1 0 013.1 0 3.293 3.293 0 011.3.7 3.126 3.126 0 01.9 1.1 6.222 6.222 0 01.4 1.6H379a2.346 2.346 0 00-.8-2z"/></g><path data-name="Прямоугольник 86" fill="#222" d="M206.818 0h1.9v44h-1.9z"/></svg>