<svg xmlns="http://www.w3.org/2000/svg" width="84.002" height="84" viewBox="0 0 84.002 84">
  <g id="info-icon3" transform="translate(-105.001 674.008)">
    <path id="path184" d="M105-674.008v84h84v-84Z" fill="none" fill-rule="evenodd"/>
    <path id="path186" d="M106-624.009h24c8.124,0,10.573,3.024,15,4l9,2c2.1.736,3.693,2.8,3,6l14-4c5-1,6.187,1.048,8,4l-28,13c-2.889,2.352-6.528,2.757-11,1l-22-7v3H106Z" fill="none" stroke="#fe0617" stroke-linecap="round" stroke-linejoin="round" stroke-miterlimit="79.84" stroke-width="2" fill-rule="evenodd"/>
    <path id="path188" d="M117.5-623.509v19" fill="none" stroke="#fe0617" stroke-linecap="round" stroke-linejoin="round" stroke-miterlimit="79.84" stroke-width="1" fill-rule="evenodd"/>
    <path id="path190" d="M156.674-612.369c-.687,1.968-2.875,2.373-4.375,2.187l-11.3-.827h-5" fill="none" stroke="#fe0617" stroke-linecap="round" stroke-linejoin="round" stroke-miterlimit="79.84" stroke-width="1" fill-rule="evenodd"/>
    <path id="path192" d="M149-670.01c-8,0-15,5-15,14s4.323,11.471,8,16v5c0,6,2,8,7,8s7-2,7-8v-5c3.677-4.529,8-7,8-16s-7-14-15-14" fill="none" stroke="#fe0617" stroke-linecap="round" stroke-linejoin="round" stroke-miterlimit="79.84" stroke-width="2" fill-rule="evenodd"/>
    <path id="path194" d="M142.5-639.509h13" fill="none" stroke="#fe0617" stroke-linecap="round" stroke-linejoin="round" stroke-miterlimit="79.84" stroke-width="1" fill-rule="evenodd"/>
    <path id="path196" d="M143-652.009l4-4,4,4,4-4" fill="none" stroke="#fe0617" stroke-linecap="round" stroke-linejoin="round" stroke-miterlimit="79.84" stroke-width="1" fill-rule="evenodd"/>
    <path id="path198" d="M168.5-655.51h5" fill="none" stroke="#fe0617" stroke-linecap="round" stroke-linejoin="round" stroke-miterlimit="79.84" stroke-width="1" fill-rule="evenodd"/>
    <path id="path200" d="M167.5-664.51l3.751-1.5" fill="none" stroke="#fe0617" stroke-linecap="round" stroke-linejoin="round" stroke-miterlimit="79.84" stroke-width="1" fill-rule="evenodd"/>
    <path id="path202" d="M167-646.311l4,1.6" fill="none" stroke="#fe0617" stroke-linecap="round" stroke-linejoin="round" stroke-miterlimit="79.84" stroke-width="1" fill-rule="evenodd"/>
    <path id="path204" d="M129.5-655.51h-5" fill="none" stroke="#fe0617" stroke-linecap="round" stroke-linejoin="round" stroke-miterlimit="79.84" stroke-width="1" fill-rule="evenodd"/>
    <path id="path206" d="M130.5-664.51l-3.751-1.5" fill="none" stroke="#fe0617" stroke-linecap="round" stroke-linejoin="round" stroke-miterlimit="79.84" stroke-width="1" fill-rule="evenodd"/>
    <path id="path208" d="M131-646.311l-4,1.6" fill="none" stroke="#fe0617" stroke-linecap="round" stroke-linejoin="round" stroke-miterlimit="79.84" stroke-width="1" fill-rule="evenodd"/>
  </g>
</svg>
