<svg xmlns="http://www.w3.org/2000/svg" width="84.008" height="84" viewBox="0 0 84.008 84">
  <g id="info-icon6" transform="translate(-208.598 494.779)">
    <path id="path166" d="M208.6-494.779v84h84v-84Z" fill="none" fill-rule="evenodd"/>
    <path id="path168" d="M283.61-470.79H209.6v36.024H283.61Z" fill="none" stroke="#fe0617" stroke-miterlimit="79.84" stroke-width="2" fill-rule="evenodd"/>
    <path id="path170" d="M280.107-467.287H213.1v29.018h67.006Z" fill="none" stroke="#fe0617" stroke-miterlimit="79.84" stroke-width="1" fill-rule="evenodd"/>
    <path id="path172" d="M247.1-480.281v-12" fill="none" stroke="#fe0617" stroke-linecap="round" stroke-linejoin="round" stroke-miterlimit="79.84" stroke-width="1" fill-rule="evenodd"/>
    <path id="path174" d="M260.194-479.354l2.821-8.851" fill="none" stroke="#fe0617" stroke-linecap="round" stroke-linejoin="round" stroke-miterlimit="79.84" stroke-width="1" fill-rule="evenodd"/>
    <path id="path176" d="M272.18-476.354l2.851-5.851" fill="none" stroke="#fe0617" stroke-linecap="round" stroke-linejoin="round" stroke-miterlimit="79.84" stroke-width="1" fill-rule="evenodd"/>
    <path id="path178" d="M234.015-479.354l-2.821-8.851" fill="none" stroke="#fe0617" stroke-linecap="round" stroke-linejoin="round" stroke-miterlimit="79.84" stroke-width="1" fill-rule="evenodd"/>
    <path id="path180" d="M222.029-476.354l-2.851-5.851" fill="none" stroke="#fe0617" stroke-linecap="round" stroke-linejoin="round" stroke-miterlimit="79.84" stroke-width="1" fill-rule="evenodd"/>
    <path id="path182" d="M247.1-425.426v12" fill="none" stroke="#fe0617" stroke-linecap="round" stroke-linejoin="round" stroke-miterlimit="79.84" stroke-width="1" fill-rule="evenodd"/>
    <path id="path184" d="M260.194-426.352l2.821,8.851" fill="none" stroke="#fe0617" stroke-linecap="round" stroke-linejoin="round" stroke-miterlimit="79.84" stroke-width="1" fill-rule="evenodd"/>
    <path id="path186" d="M272.18-429.352l2.851,5.851" fill="none" stroke="#fe0617" stroke-linecap="round" stroke-linejoin="round" stroke-miterlimit="79.84" stroke-width="1" fill-rule="evenodd"/>
    <path id="path188" d="M234.015-426.352l-2.821,8.851" fill="none" stroke="#fe0617" stroke-linecap="round" stroke-linejoin="round" stroke-miterlimit="79.84" stroke-width="1" fill-rule="evenodd"/>
    <path id="path190" d="M222.029-429.352l-2.851,5.851" fill="none" stroke="#fe0617" stroke-linecap="round" stroke-linejoin="round" stroke-miterlimit="79.84" stroke-width="1" fill-rule="evenodd"/>
    <path id="path192" d="M219.6-461.779a1,1,0,0,1,1,1,1,1,0,0,1-1,1,1,1,0,0,1-1-1A1,1,0,0,1,219.6-461.779Z" fill="#fe0617" fill-rule="evenodd"/>
    <path id="path194" d="M219.6-453.779a1,1,0,0,1,1,1,1,1,0,0,1-1,1,1,1,0,0,1-1-1A1,1,0,0,1,219.6-453.779Z" fill="#fe0617" fill-rule="evenodd"/>
    <path id="path196" d="M219.6-445.774a1,1,0,0,1,1,1,1,1,0,0,1-1,1,1,1,0,0,1-1-1A1,1,0,0,1,219.6-445.774Z" fill="#fe0617" fill-rule="evenodd"/>
    <path id="path198" d="M228.6-461.779a1,1,0,0,1,1,1,1,1,0,0,1-1,1,1,1,0,0,1-1-1A1,1,0,0,1,228.6-461.779Z" fill="#fe0617" fill-rule="evenodd"/>
    <path id="path200" d="M228.6-453.779a1,1,0,0,1,1,1,1,1,0,0,1-1,1,1,1,0,0,1-1-1A1,1,0,0,1,228.6-453.779Z" fill="#fe0617" fill-rule="evenodd"/>
    <path id="path202" d="M228.6-445.774a1,1,0,0,1,1,1,1,1,0,0,1-1,1,1,1,0,0,1-1-1A1,1,0,0,1,228.6-445.774Z" fill="#fe0617" fill-rule="evenodd"/>
    <path id="path204" d="M237.6-461.779a1,1,0,0,1,1,1,1,1,0,0,1-1,1,1,1,0,0,1-1-1A1,1,0,0,1,237.6-461.779Z" fill="#fe0617" fill-rule="evenodd"/>
    <path id="path206" d="M237.6-453.779a1,1,0,0,1,1,1,1,1,0,0,1-1,1,1,1,0,0,1-1-1A1,1,0,0,1,237.6-453.779Z" fill="#fe0617" fill-rule="evenodd"/>
    <path id="path208" d="M237.6-445.774a1,1,0,0,1,1,1,1,1,0,0,1-1,1,1,1,0,0,1-1-1A1,1,0,0,1,237.6-445.774Z" fill="#fe0617" fill-rule="evenodd"/>
    <path id="path210" d="M246.6-461.779a1,1,0,0,1,1,1,1,1,0,0,1-1,1,1,1,0,0,1-1-1A1,1,0,0,1,246.6-461.779Z" fill="#fe0617" fill-rule="evenodd"/>
    <path id="path212" d="M246.6-453.779a1,1,0,0,1,1,1,1,1,0,0,1-1,1,1,1,0,0,1-1-1A1,1,0,0,1,246.6-453.779Z" fill="#fe0617" fill-rule="evenodd"/>
    <path id="path214" d="M246.6-445.774a1,1,0,0,1,1,1,1,1,0,0,1-1,1,1,1,0,0,1-1-1A1,1,0,0,1,246.6-445.774Z" fill="#fe0617" fill-rule="evenodd"/>
    <path id="path216" d="M255.6-461.779a1,1,0,0,1,1,1,1,1,0,0,1-1,1,1,1,0,0,1-1-1A1,1,0,0,1,255.6-461.779Z" fill="#fe0617" fill-rule="evenodd"/>
    <path id="path218" d="M255.6-453.779a1,1,0,0,1,1,1,1,1,0,0,1-1,1,1,1,0,0,1-1-1A1,1,0,0,1,255.6-453.779Z" fill="#fe0617" fill-rule="evenodd"/>
    <path id="path220" d="M255.6-445.774a1,1,0,0,1,1,1,1,1,0,0,1-1,1,1,1,0,0,1-1-1A1,1,0,0,1,255.6-445.774Z" fill="#fe0617" fill-rule="evenodd"/>
    <path id="path222" d="M264.605-461.779a1,1,0,0,1,1,1,1,1,0,0,1-1,1,1,1,0,0,1-1-1A1,1,0,0,1,264.605-461.779Z" fill="#fe0617" fill-rule="evenodd"/>
    <path id="path224" d="M264.605-453.779a1,1,0,0,1,1,1,1,1,0,0,1-1,1,1,1,0,0,1-1-1A1,1,0,0,1,264.605-453.779Z" fill="#fe0617" fill-rule="evenodd"/>
    <path id="path226" d="M264.605-445.774a1,1,0,0,1,1,1,1,1,0,0,1-1,1,1,1,0,0,1-1-1A1,1,0,0,1,264.605-445.774Z" fill="#fe0617" fill-rule="evenodd"/>
    <path id="path228" d="M273.606-461.779a1,1,0,0,1,1,1,1,1,0,0,1-1,1,1,1,0,0,1-1-1A1,1,0,0,1,273.606-461.779Z" fill="#fe0617" fill-rule="evenodd"/>
    <path id="path230" d="M273.606-453.779a1,1,0,0,1,1,1,1,1,0,0,1-1,1,1,1,0,0,1-1-1A1,1,0,0,1,273.606-453.779Z" fill="#fe0617" fill-rule="evenodd"/>
    <path id="path232" d="M273.606-445.774a1,1,0,0,1,1,1,1,1,0,0,1-1,1,1,1,0,0,1-1-1A1,1,0,0,1,273.606-445.774Z" fill="#fe0617" fill-rule="evenodd"/>
  </g>
</svg>
