<svg xmlns="http://www.w3.org/2000/svg" width="84.002" height="84" viewBox="0 0 84.002 84">
  <g id="info-icon4" transform="translate(-357.004 674.008)">
    <path id="path119" d="M357-674.008v84h84v-84Z" fill="none" fill-rule="evenodd"/>
    <path id="path121" d="M366.006-661.011v56h56v-56Z" fill="none" stroke="red" stroke-miterlimit="79.84" stroke-width="2" fill-rule="evenodd"/>
    <path id="path123" d="M372.487-661.055v-7c.005-1.869,3.012-2.063,3,0v7" fill="none" stroke="#fe0617" stroke-linecap="round" stroke-linejoin="round" stroke-miterlimit="79.84" stroke-width="1" fill-rule="evenodd"/>
    <path id="path125" d="M382.487-661.055v-7c.005-1.869,3.012-2.063,3,0v7" fill="none" stroke="#fe0617" stroke-linecap="round" stroke-linejoin="round" stroke-miterlimit="79.84" stroke-width="1" fill-rule="evenodd"/>
    <path id="path127" d="M392.488-661.055v-7c.005-1.869,3.012-2.063,3,0v7" fill="none" stroke="#fe0617" stroke-linecap="round" stroke-linejoin="round" stroke-miterlimit="79.84" stroke-width="1" fill-rule="evenodd"/>
    <path id="path129" d="M402.488-661.055v-7c.005-1.869,3.012-2.063,3,0v7" fill="none" stroke="#fe0617" stroke-linecap="round" stroke-linejoin="round" stroke-miterlimit="79.84" stroke-width="1" fill-rule="evenodd"/>
    <path id="path131" d="M412.488-661.055v-7c.005-1.869,3.012-2.063,3,0v7" fill="none" stroke="#fe0617" stroke-linecap="round" stroke-linejoin="round" stroke-miterlimit="79.84" stroke-width="1" fill-rule="evenodd"/>
    <path id="path133" d="M372.487-605.054v7c.005,1.869,3.012,2.063,3,0v-7" fill="none" stroke="#fe0617" stroke-linecap="round" stroke-linejoin="round" stroke-miterlimit="79.84" stroke-width="1" fill-rule="evenodd"/>
    <path id="path135" d="M382.487-605.054v7c.005,1.869,3.012,2.063,3,0v-7" fill="none" stroke="#fe0617" stroke-linecap="round" stroke-linejoin="round" stroke-miterlimit="79.84" stroke-width="1" fill-rule="evenodd"/>
    <path id="path137" d="M392.488-605.054v7c.005,1.869,3.012,2.063,3,0v-7" fill="none" stroke="#fe0617" stroke-linecap="round" stroke-linejoin="round" stroke-miterlimit="79.84" stroke-width="1" fill-rule="evenodd"/>
    <path id="path139" d="M402.488-605.054v7c.005,1.869,3.012,2.063,3,0v-7" fill="none" stroke="#fe0617" stroke-linecap="round" stroke-linejoin="round" stroke-miterlimit="79.84" stroke-width="1" fill-rule="evenodd"/>
    <path id="path141" d="M412.488-605.054v7c.005,1.869,3.012,2.063,3,0v-7" fill="none" stroke="#fe0617" stroke-linecap="round" stroke-linejoin="round" stroke-miterlimit="79.84" stroke-width="1" fill-rule="evenodd"/>
    <path id="path143" d="M421.988-654.555h7c1.869.005,2.063,3.012,0,3h-7" fill="none" stroke="#fe0617" stroke-linecap="round" stroke-linejoin="round" stroke-miterlimit="79.84" stroke-width="1" fill-rule="evenodd"/>
    <path id="path145" d="M421.988-644.555h7c1.869.005,2.063,3.012,0,3h-7" fill="none" stroke="#fe0617" stroke-linecap="round" stroke-linejoin="round" stroke-miterlimit="79.84" stroke-width="1" fill-rule="evenodd"/>
    <path id="path147" d="M421.988-634.555h7c1.869.005,2.063,3.012,0,3h-7" fill="none" stroke="#fe0617" stroke-linecap="round" stroke-linejoin="round" stroke-miterlimit="79.84" stroke-width="1" fill-rule="evenodd"/>
    <path id="path149" d="M421.988-624.554h7c1.869.005,2.063,3.012,0,3h-7" fill="none" stroke="#fe0617" stroke-linecap="round" stroke-linejoin="round" stroke-miterlimit="79.84" stroke-width="1" fill-rule="evenodd"/>
    <path id="path151" d="M421.988-614.554h7c1.869.005,2.063,3.012,0,3h-7" fill="none" stroke="#fe0617" stroke-linecap="round" stroke-linejoin="round" stroke-miterlimit="79.84" stroke-width="1" fill-rule="evenodd"/>
    <path id="path153" d="M365.987-654.555h-7c-1.869.005-2.063,3.012,0,3h7" fill="none" stroke="#fe0617" stroke-linecap="round" stroke-linejoin="round" stroke-miterlimit="79.84" stroke-width="1" fill-rule="evenodd"/>
    <path id="path155" d="M365.987-644.555h-7c-1.869.005-2.063,3.012,0,3h7" fill="none" stroke="#fe0617" stroke-linecap="round" stroke-linejoin="round" stroke-miterlimit="79.84" stroke-width="1" fill-rule="evenodd"/>
    <path id="path157" d="M365.987-634.555h-7c-1.869.005-2.063,3.012,0,3h7" fill="none" stroke="#fe0617" stroke-linecap="round" stroke-linejoin="round" stroke-miterlimit="79.84" stroke-width="1" fill-rule="evenodd"/>
    <path id="path159" d="M365.987-624.554h-7c-1.869.005-2.063,3.012,0,3h7" fill="none" stroke="#fe0617" stroke-linecap="round" stroke-linejoin="round" stroke-miterlimit="79.84" stroke-width="1" fill-rule="evenodd"/>
    <path id="path161" d="M365.987-614.554h-7c-1.869.005-2.063,3.012,0,3h7" fill="none" stroke="#fe0617" stroke-linecap="round" stroke-linejoin="round" stroke-miterlimit="79.84" stroke-width="1" fill-rule="evenodd"/>
    <path id="path163" d="M402.506-606.009v-19l8.453-7.016" fill="none" stroke="#fe0617" stroke-linecap="round" stroke-linejoin="round" stroke-miterlimit="79.84" stroke-width="1" fill-rule="evenodd"/>
    <path id="path165" d="M412.506-631.509a2,2,0,0,1-2-2,2,2,0,0,1,2-2,2,2,0,0,1,2,2A2,2,0,0,1,412.506-631.509Z" fill="none" stroke="red" stroke-miterlimit="79.84" stroke-width="1" fill-rule="evenodd"/>
    <path id="path167" d="M412.506-605.509v-12" fill="none" stroke="#fe0617" stroke-linecap="round" stroke-linejoin="round" stroke-miterlimit="79.84" stroke-width="1" fill-rule="evenodd"/>
    <path id="path169" d="M412.506-617.509a2,2,0,0,1-2-2,2,2,0,0,1,2-2,2,2,0,0,1,2,2A2,2,0,0,1,412.506-617.509Z" fill="none" stroke="red" stroke-miterlimit="79.84" stroke-width="1" fill-rule="evenodd"/>
    <path id="path171" d="M394.506-605.509v-46" fill="none" stroke="#fe0617" stroke-linecap="round" stroke-linejoin="round" stroke-miterlimit="79.84" stroke-width="1" fill-rule="evenodd"/>
    <path id="path173" d="M394.509-651.512a2,2,0,0,1-2-2,2,2,0,0,1,2-2,2,2,0,0,1,2,2A2,2,0,0,1,394.509-651.512Z" fill="none" stroke="red" stroke-miterlimit="79.84" stroke-width="1" fill-rule="evenodd"/>
    <path id="path175" d="M385.506-606.009v-30l-8.5-8" fill="none" stroke="#fe0617" stroke-linecap="round" stroke-linejoin="round" stroke-miterlimit="79.84" stroke-width="1" fill-rule="evenodd"/>
    <path id="path177" d="M375.506-643.509a2,2,0,0,0,2-2,2,2,0,0,0-2-2,2,2,0,0,0-2,2A2,2,0,0,0,375.506-643.509Z" fill="none" stroke="red" stroke-miterlimit="79.84" stroke-width="1" fill-rule="evenodd"/>
    <path id="path179" d="M375.506-605.509v-12" fill="none" stroke="#fe0617" stroke-linecap="round" stroke-linejoin="round" stroke-miterlimit="79.84" stroke-width="1" fill-rule="evenodd"/>
    <path id="path181" d="M375.506-617.509a2,2,0,0,1-2-2,2,2,0,0,1,2-2,2,2,0,0,1,2,2A2,2,0,0,1,375.506-617.509Z" fill="none" stroke="red" stroke-miterlimit="79.84" stroke-width="1" fill-rule="evenodd"/>
  </g>
</svg>
