<svg xmlns="http://www.w3.org/2000/svg" width="84.004" height="84" viewBox="0 0 84.004 84">
  <g id="info-icon7" transform="translate(-396.609 494.779)">
    <path id="path120" d="M396.609-494.779v84h84v-84Z" fill="none" fill-rule="evenodd"/>
    <path id="path122" d="M398.61-424.778l-1-4,10-9v-43h62v43l10,9-1,4Z" fill="none" stroke="#fe0617" stroke-linecap="round" stroke-linejoin="round" stroke-miterlimit="79.84" stroke-width="2" fill-rule="evenodd"/>
    <path id="path124" d="M408.11-437.278h61" fill="none" stroke="#fe0617" stroke-linecap="round" stroke-linejoin="round" stroke-miterlimit="79.84" stroke-width="1" fill-rule="evenodd"/>
    <path id="path126" d="M408.11-432.778h62.5" fill="none" stroke="#fe0617" stroke-linecap="round" stroke-linejoin="round" stroke-miterlimit="79.84" stroke-width="1" fill-rule="evenodd"/>
    <path id="path128" d="M433.607-428.778h11.507" fill="none" stroke="#fe0617" stroke-linecap="round" stroke-linejoin="round" stroke-miterlimit="79.84" stroke-width="1" fill-rule="evenodd"/>
    <path id="path130" d="M421.771-450.285c4.075,0,6.239-5.4,8.15-9.494,1.788-3.825,4.075-9.494,8.15-9.494" fill="none" stroke="#fe0617" stroke-linecap="round" stroke-linejoin="round" stroke-miterlimit="79.84" stroke-width="1" fill-rule="evenodd"/>
    <path id="path132" d="M454.371-450.285c-4.075,0-6.239-5.4-8.15-9.494-1.788-3.825-4.075-9.494-8.151-9.494" fill="none" stroke="#fe0617" stroke-linecap="round" stroke-linejoin="round" stroke-miterlimit="79.84" stroke-width="1" fill-rule="evenodd"/>
    <path id="path134" d="M454.371-450.285c2.545,0,4.344-2.107,5.8-4.684" fill="none" stroke="#fe0617" stroke-linecap="round" stroke-linejoin="round" stroke-miterlimit="79.84" stroke-width="1" fill-rule="evenodd"/>
    <path id="path136" d="M421.771-450.285c-4.076,0-6.24-5.4-8.151-9.494" fill="none" stroke="#fe0617" stroke-linecap="round" stroke-linejoin="round" stroke-miterlimit="79.84" stroke-width="1" fill-rule="evenodd"/>
    <path id="path138" d="M413.11-460.279h51" fill="none" stroke="#fe0617" stroke-linecap="round" stroke-linejoin="round" stroke-miterlimit="79.84" stroke-width="1" fill-rule="evenodd"/>
    <path id="path140" d="M460.109-462.279l4.005,2" fill="none" stroke="#fe0617" stroke-linecap="round" stroke-linejoin="round" stroke-miterlimit="79.84" stroke-width="1" fill-rule="evenodd"/>
    <path id="path142" d="M460.109-458.279l4.005-2" fill="none" stroke="#fe0617" stroke-linecap="round" stroke-linejoin="round" stroke-miterlimit="79.84" stroke-width="1" fill-rule="evenodd"/>
  </g>
</svg>
