<svg xmlns="http://www.w3.org/2000/svg" width="84.004" height="84" viewBox="0 0 84.004 84">
  <g id="info-icon2" transform="translate(-189.001 674.008)">
    <path id="path81" d="M189-674.008v84h84v-84Z" fill="none" fill-rule="evenodd"/>
    <path id="path83" d="M207.083-600.925c0-.2.011-.415.023-.632l.268-5.261a30.428,30.428,0,0,1-8.56-8.56l-5.261.268c-.217.012-.428.019-.632.023a35.3,35.3,0,0,1-2.864-6.9q.224-.216.465-.435l3.907-3.531a30.19,30.19,0,0,1-.608-6.055,30.335,30.335,0,0,1,.608-6.057l-3.907-3.528c-.161-.144-.316-.289-.464-.433a35.177,35.177,0,0,1,2.863-6.9c.2,0,.415.011.632.021l5.261.269a30.429,30.429,0,0,1,8.56-8.56l-.268-5.263c-.012-.216-.019-.427-.023-.631a35.177,35.177,0,0,1,6.9-2.863q.216.222.435.463l3.527,3.908a30.336,30.336,0,0,1,6.059-.609,30.333,30.333,0,0,1,6.057.609l3.528-3.908c.144-.16.289-.315.433-.464a35.3,35.3,0,0,1,6.9,2.864c0,.2-.011.415-.021.631l-.269,5.263a30.428,30.428,0,0,1,8.56,8.56l5.263-.269c.216-.011.427-.017.631-.021a35.2,35.2,0,0,1,2.863,6.9c-.148.144-.3.289-.464.435l-3.908,3.527a30.249,30.249,0,0,1,.611,6.059,30.244,30.244,0,0,1-.611,6.06l3.908,3.525c.161.145.316.292.464.436a35.2,35.2,0,0,1-2.863,6.9c-.2,0-.415-.011-.631-.023l-5.263-.268a30.428,30.428,0,0,1-8.56,8.56l.269,5.261c.011.217.017.428.021.632a35.2,35.2,0,0,1-6.9,2.863c-.144-.148-.291-.3-.435-.465l-3.529-3.905a30.32,30.32,0,0,1-6.056.608,30.256,30.256,0,0,1-6.06-.609l-3.525,3.907q-.22.244-.436.465a35.2,35.2,0,0,1-6.9-2.863Z" fill="none" stroke="#fe0617" stroke-linecap="round" stroke-linejoin="round" stroke-miterlimit="79.84" stroke-width="2.109" fill-rule="evenodd"/>
    <path id="path85" d="M234.555-648.413a19.493,19.493,0,0,1,8.956,16.4A19.514,19.514,0,0,1,224-612.5a19.482,19.482,0,0,1-5.568-.808" fill="none" stroke="#fe0617" stroke-linecap="round" stroke-linejoin="round" stroke-miterlimit="79.84" stroke-width="1" fill-rule="evenodd"/>
    <path id="path87" d="M213.193-615.776a19.492,19.492,0,0,1-8.7-16.234A19.514,19.514,0,0,1,224-651.513a19.49,19.49,0,0,1,5.955.927" fill="none" stroke="#fe0617" stroke-linecap="round" stroke-linejoin="round" stroke-miterlimit="79.84" stroke-width="1" fill-rule="evenodd"/>
    <path id="path89" d="M234.5-642.509l.012-6h5.976" fill="none" stroke="#fe0617" stroke-linecap="round" stroke-linejoin="round" stroke-miterlimit="79.84" stroke-width="1" fill-rule="evenodd"/>
    <path id="path91" d="M213.5-621.509l-.012,6h-5.976" fill="none" stroke="#fe0617" stroke-linecap="round" stroke-linejoin="round" stroke-miterlimit="79.84" stroke-width="1" fill-rule="evenodd"/>
    <path id="path93" d="M215.851-632.562l6.5,5.7,10.3-10.3" fill="none" stroke="#fe0617" stroke-linecap="round" stroke-linejoin="round" stroke-miterlimit="79.84" stroke-width="1" fill-rule="evenodd"/>
  </g>
</svg>
