<svg xmlns="http://www.w3.org/2000/svg" width="84.002" height="84" viewBox="0 0 84.002 84">
  <g id="info-icon" transform="translate(-273.003 674.008)">
    <path id="path96" d="M273-674.008v84h84v-84Z" fill="none" fill-rule="evenodd"/>
    <path id="path98" d="M288-600.009v3H275v-69h61v69h-13v-3Z" fill="none" stroke="#fe0617" stroke-linecap="round" stroke-linejoin="round" stroke-miterlimit="79.84" stroke-width="2" fill-rule="evenodd"/>
    <path id="path100" d="M287.517-600.013v-49.493h35.976v49.493" fill="none" stroke="#fe0617" stroke-linecap="round" stroke-linejoin="round" stroke-miterlimit="79.84" stroke-width="1" fill-rule="evenodd"/>
    <path id="path102" d="M294.005-655.01l4-4,4,4" fill="none" stroke="#fe0617" stroke-linecap="round" stroke-linejoin="round" stroke-miterlimit="79.84" stroke-width="1" fill-rule="evenodd"/>
    <path id="path104" d="M310.005-659.01l4,4,4-4" fill="none" stroke="#fe0617" stroke-linecap="round" stroke-linejoin="round" stroke-miterlimit="79.84" stroke-width="1" fill-rule="evenodd"/>
    <path id="path106" d="M305.505-649.507v10.995" fill="none" stroke="#fe0617" stroke-linecap="round" stroke-linejoin="round" stroke-miterlimit="79.84" stroke-width="1" fill-rule="evenodd"/>
    <path id="path108" d="M305.505-611.5v11.987" fill="none" stroke="#fe0617" stroke-linecap="round" stroke-linejoin="round" stroke-miterlimit="79.84" stroke-width="1" fill-rule="evenodd"/>
    <path id="path110" d="M302.505-630.507v10.995" fill="none" stroke="#fe0617" stroke-linecap="round" stroke-linejoin="round" stroke-miterlimit="79.84" stroke-width="1" fill-rule="evenodd"/>
    <path id="path112" d="M312.505-618.509v6h-2l-8-7h-7v-11h7l8-7h2v6" fill="none" stroke="#fe0617" stroke-linecap="round" stroke-linejoin="round" stroke-miterlimit="79.84" stroke-width="1" fill-rule="evenodd"/>
    <path id="path114" d="M308.508-620.512l7.987-8" fill="none" stroke="#fe0617" stroke-linecap="round" stroke-linejoin="round" stroke-miterlimit="79.84" stroke-width="1" fill-rule="evenodd"/>
    <path id="path116" d="M308.508-628.509l7.987,8" fill="none" stroke="#fe0617" stroke-linecap="round" stroke-linejoin="round" stroke-miterlimit="79.84" stroke-width="1" fill-rule="evenodd"/>
  </g>
</svg>
