<svg xmlns="http://www.w3.org/2000/svg" width="381" height="44" viewBox="0 0 381 44">
  <g id="logo" transform="translate(-200 -36)">
    <g id="Сгруппировать_7" data-name="Сгруппировать 7" transform="translate(200 39.9)">
      <path id="Контур_38" data-name="Контур 38" d="M9.5,40.2a5.51,5.51,0,0,0,1.7,2,9.65,9.65,0,0,0,2.5,1.2,15.438,15.438,0,0,0,3,.4,17.959,17.959,0,0,0,2.2-.2,5.678,5.678,0,0,0,2.2-.7,4.887,4.887,0,0,0,1.8-1.4,3.232,3.232,0,0,0,.7-2.2,2.869,2.869,0,0,0-.9-2.3,7.042,7.042,0,0,0-2.4-1.5,15.156,15.156,0,0,0-3.4-1c-1.3-.3-2.5-.6-3.9-1a29.066,29.066,0,0,1-3.9-1.2,12.457,12.457,0,0,1-3.4-1.9,8.492,8.492,0,0,1-2.4-2.9,8.712,8.712,0,0,1-.9-4.2,9.5,9.5,0,0,1,1.2-4.8,11.163,11.163,0,0,1,3.1-3.4,13.036,13.036,0,0,1,4.3-2,19.725,19.725,0,0,1,4.8-.6,23.517,23.517,0,0,1,5.4.6,14.613,14.613,0,0,1,4.6,2A10.155,10.155,0,0,1,29,18.7,10.922,10.922,0,0,1,30.2,24H22.6a6.664,6.664,0,0,0-.7-2.7,4.629,4.629,0,0,0-1.5-1.6,7.261,7.261,0,0,0-2.2-.9,11.416,11.416,0,0,0-2.7-.2,12.252,12.252,0,0,0-1.9.2,5.094,5.094,0,0,0-1.7.7,7.41,7.41,0,0,0-1.3,1.2,3.557,3.557,0,0,0-.5,1.9,2.861,2.861,0,0,0,.4,1.7,4.4,4.4,0,0,0,1.6,1.2,23.255,23.255,0,0,0,3.2,1.1c1.4.4,3.2.8,5.4,1.4.7.1,1.6.4,2.8.7A12.58,12.58,0,0,1,27,30.4a9.884,9.884,0,0,1,3,3.1,8.326,8.326,0,0,1,1.3,4.9,9.883,9.883,0,0,1-1,4.5,9.775,9.775,0,0,1-2.8,3.6,14.278,14.278,0,0,1-4.6,2.4,21.167,21.167,0,0,1-6.4.8,21.206,21.206,0,0,1-5.7-.7,13.827,13.827,0,0,1-4.9-2.3,11.158,11.158,0,0,1-3.4-4A12.611,12.611,0,0,1,1.3,37H8.9A5.272,5.272,0,0,0,9.5,40.2Z" transform="translate(-1.3 -12.4)" fill="#ff0518"/>
      <path id="Контур_39" data-name="Контур 39" d="M56.2,13.3,69.5,49H61.4l-2.7-8H45.3l-2.8,8H34.6L48.1,13.3h8.1Zm.4,21.9L52.1,22.1H52L47.4,35.2Z" transform="translate(-1.3 -12.4)" fill="#ff0518"/>
      <path id="Контур_40" data-name="Контур 40" d="M82.9,13.3l14.9,24h.1v-24h7.4V49H97.4L82.6,25.1h-.1V49H75.2V13.3Z" transform="translate(-1.3 -12.4)" fill="#ff0518"/>
      <path id="Контур_41" data-name="Контур 41" d="M110.8,13.3h8.8L128,27.4l8.3-14.1h8.8l-13.2,22V49h-7.8V35.1Z" transform="translate(-1.3 -12.4)" fill="#ff0518"/>
      <path id="Контур_42" data-name="Контур 42" d="M150.2,23.9a17.684,17.684,0,0,1,3.4-6,15.945,15.945,0,0,1,5.5-4,19,19,0,0,1,14.8,0,15.945,15.945,0,0,1,5.5,4,17.684,17.684,0,0,1,3.4,6,22.513,22.513,0,0,1,1.2,7.4,21.919,21.919,0,0,1-1.2,7.3,18.213,18.213,0,0,1-3.4,5.9,14.526,14.526,0,0,1-5.5,3.9,17.458,17.458,0,0,1-7.4,1.4,19.51,19.51,0,0,1-7.4-1.4,17.1,17.1,0,0,1-5.5-3.9,16.334,16.334,0,0,1-3.4-5.9,21.5,21.5,0,0,1-1.2-7.3A22.088,22.088,0,0,1,150.2,23.9Zm7.2,11.8a11.933,11.933,0,0,0,1.7,3.8,9.718,9.718,0,0,0,3,2.7,10.625,10.625,0,0,0,9,0,9.718,9.718,0,0,0,3-2.7,11.933,11.933,0,0,0,1.7-3.8,16.068,16.068,0,0,0,.5-4.4,21.381,21.381,0,0,0-.5-4.5,10.541,10.541,0,0,0-1.7-3.9,8.911,8.911,0,0,0-3-2.8,10.625,10.625,0,0,0-9,0,8.911,8.911,0,0,0-3,2.8,12.486,12.486,0,0,0-1.7,3.9,16.8,16.8,0,0,0-.5,4.5A12.96,12.96,0,0,0,157.4,35.7Z" transform="translate(-1.3 -12.4)" fill="#ff0518"/>
    </g>
    <g id="Сгруппировать_8" data-name="Сгруппировать 8" transform="translate(432.2 40.8)">
      <path id="Контур_43" data-name="Контур 43" d="M242.1,13.6v1.3h-6.4v3.6h5.9v1.3h-5.9v4h6.4V25h-7.9V13.6Z" transform="translate(-234.2 -13.3)" fill="#222"/>
      <path id="Контур_44" data-name="Контур 44" d="M246.3,13.6V23.7h6V25h-7.6V13.6Z" transform="translate(-234.2 -13.3)" fill="#222"/>
      <path id="Контур_45" data-name="Контур 45" d="M262.4,13.6v1.3H256v3.6h5.9v1.3H256v4h6.4V25h-7.9V13.6Z" transform="translate(-234.2 -13.3)" fill="#222"/>
      <path id="Контур_46" data-name="Контур 46" d="M267.9,25l-4-11.4h1.6l3.3,9.9h0l3.3-9.9h1.6L269.6,25Z" transform="translate(-234.2 -13.3)" fill="#222"/>
      <path id="Контур_47" data-name="Контур 47" d="M279.7,13.6,284.2,25h-1.7l-1.2-3.4h-4.8L275.2,25h-1.6L278,13.6Zm1.1,6.7L278.9,15h0L277,20.3Z" transform="translate(-234.2 -13.3)" fill="#222"/>
      <path id="Контур_48" data-name="Контур 48" d="M283.4,14.9V13.6h9.1v1.3h-3.8V25h-1.5V14.9Z" transform="translate(-234.2 -13.3)" fill="#222"/>
      <path id="Контур_49" data-name="Контур 49" d="M294.3,17a5.735,5.735,0,0,1,1-1.9,4.532,4.532,0,0,1,1.7-1.3,6.01,6.01,0,0,1,4.8,0,4.532,4.532,0,0,1,1.7,1.3,4.982,4.982,0,0,1,1,1.9,8.217,8.217,0,0,1,0,4.4,5.735,5.735,0,0,1-1,1.9,4.31,4.31,0,0,1-1.7,1.3,6.01,6.01,0,0,1-4.8,0,4.533,4.533,0,0,1-1.7-1.3,5.734,5.734,0,0,1-1-1.9,8.329,8.329,0,0,1-.3-2.2A8.919,8.919,0,0,1,294.3,17Zm1.4,4a3.479,3.479,0,0,0,.7,1.5,4.263,4.263,0,0,0,1.2,1.1,4.25,4.25,0,0,0,3.6,0,3.179,3.179,0,0,0,1.2-1.1,5.066,5.066,0,0,0,.7-1.5,9.852,9.852,0,0,0,.2-1.7,9.852,9.852,0,0,0-.2-1.7,3.479,3.479,0,0,0-.7-1.5,4.263,4.263,0,0,0-1.2-1.1,4.25,4.25,0,0,0-3.6,0,3.179,3.179,0,0,0-1.2,1.1,4.128,4.128,0,0,0-.7,1.5,8.806,8.806,0,0,0-.2,1.7A9.852,9.852,0,0,0,295.7,21Z" transform="translate(-234.2 -13.3)" fill="#222"/>
      <path id="Контур_50" data-name="Контур 50" d="M313,13.6a4.237,4.237,0,0,1,2.6.8,2.5,2.5,0,0,1,.9,2.2,3.453,3.453,0,0,1-.5,1.8,2.492,2.492,0,0,1-1.5,1.1h0a6.89,6.89,0,0,1,.8.3,1.2,1.2,0,0,1,.5.5,4.872,4.872,0,0,1,.3.7,2.2,2.2,0,0,1,.1.8v.8a1.949,1.949,0,0,0,.1.8c.1.2.1.5.2.8a1.612,1.612,0,0,0,.4.7h-1.7a.764.764,0,0,1-.2-.5c0-.2-.1-.4-.1-.7v-.8a1.949,1.949,0,0,0-.1-.8,2.353,2.353,0,0,0-.2-.8c-.1-.2-.2-.5-.3-.7a1,1,0,0,0-.5-.4,2,2,0,0,0-.9-.2h-3.7v5h-1.5V13.6Zm.3,5.2a6.89,6.89,0,0,0,.8-.3c.2-.1.4-.4.6-.6a1.5,1.5,0,0,0,.2-1,2.168,2.168,0,0,0-.5-1.4c-.3-.4-.8-.5-1.6-.5H309v4h3.2A2.344,2.344,0,0,1,313.3,18.8Z" transform="translate(-234.2 -13.3)" fill="#222"/>
      <path id="Контур_51" data-name="Контур 51" d="M325.1,15.1a3.077,3.077,0,0,0-1.9-.6,2.769,2.769,0,0,0-.9.1,6.889,6.889,0,0,0-.8.3,1.7,1.7,0,0,0-.6.6,2.92,2.92,0,0,0-.2.9,1.4,1.4,0,0,0,.3.9,2.178,2.178,0,0,0,.8.5,3.5,3.5,0,0,0,1.2.3c.4.1.9.2,1.3.3a6.468,6.468,0,0,1,1.3.4,3.38,3.38,0,0,1,1.2.6,3.45,3.45,0,0,1,.8.9,2.9,2.9,0,0,1,.3,1.4,2.934,2.934,0,0,1-.4,1.6,5.241,5.241,0,0,1-1,1.1,3.506,3.506,0,0,1-1.4.6,8.752,8.752,0,0,1-1.6.2,11.018,11.018,0,0,1-1.8-.2,5.226,5.226,0,0,1-1.5-.7,2.94,2.94,0,0,1-1-1.2,4.776,4.776,0,0,1-.4-1.8h1.4a2.133,2.133,0,0,0,.3,1.2,5.494,5.494,0,0,0,.7.9,3.7,3.7,0,0,0,1.1.5,5.019,5.019,0,0,0,1.2.2,3.4,3.4,0,0,0,1-.1,9.439,9.439,0,0,0,.9-.3,4.351,4.351,0,0,0,.7-.6,1.817,1.817,0,0,0,0-2,2.407,2.407,0,0,0-.8-.6,3.374,3.374,0,0,0-1.2-.4c-.4-.1-.9-.2-1.3-.3a4.951,4.951,0,0,1-1.3-.4c-.4-.2-.8-.3-1.2-.5a3.043,3.043,0,0,1-.8-.8,2.5,2.5,0,0,1-.3-1.3,2.41,2.41,0,0,1,.4-1.5,2.189,2.189,0,0,1,.9-1,3.1,3.1,0,0,1,1.3-.6,6.1,6.1,0,0,1,3.1,0,3.293,3.293,0,0,1,1.3.7,3.126,3.126,0,0,1,.9,1.1,6.222,6.222,0,0,1,.4,1.6h-1.4A3.153,3.153,0,0,0,325.1,15.1Z" transform="translate(-234.2 -13.3)" fill="#222"/>
    </g>
    <g id="Сгруппировать_9" data-name="Сгруппировать 9" transform="translate(430.9 62.8)">
      <path id="Контур_52" data-name="Контур 52" d="M239,35.6,243.5,47h-1.7l-1.2-3.4h-4.8L234.5,47h-1.6l4.4-11.4Zm1.1,6.7L238.2,37h0l-1.9,5.3Z" transform="translate(-232.9 -35.3)" fill="#222"/>
      <path id="Контур_53" data-name="Контур 53" d="M247,35.6l6,9.3h0V35.6h1.4V47h-1.7l-6-9.2h0V47h-1.4V35.6Z" transform="translate(-232.9 -35.3)" fill="#222"/>
      <path id="Контур_54" data-name="Контур 54" d="M261.7,35.6a5.776,5.776,0,0,1,4.1,1.3,5.643,5.643,0,0,1,1.4,4.1,10.32,10.32,0,0,1-.3,2.6,3.861,3.861,0,0,1-1,1.9,4.344,4.344,0,0,1-1.7,1.2,6.249,6.249,0,0,1-2.5.4h-3.9V35.6Zm.1,10.1h.6a2.353,2.353,0,0,0,.8-.2,3.552,3.552,0,0,0,.9-.4,6.034,6.034,0,0,0,.8-.8,6.658,6.658,0,0,0,.6-1.2,8.2,8.2,0,0,0,0-3.6,3.694,3.694,0,0,0-.7-1.4,2.73,2.73,0,0,0-1.2-.9,4.844,4.844,0,0,0-1.8-.3h-2.6v8.9h2.6Z" transform="translate(-232.9 -35.3)" fill="#222"/>
      <path id="Контур_55" data-name="Контур 55" d="M283,35.6v1.3h-6.4v3.6h5.9v1.3h-5.9v4H283V47h-7.9V35.6Z" transform="translate(-232.9 -35.3)" fill="#222"/>
      <path id="Контур_56" data-name="Контур 56" d="M291.4,37.1a3.077,3.077,0,0,0-1.9-.6,2.769,2.769,0,0,0-.9.1,6.889,6.889,0,0,0-.8.3,1.7,1.7,0,0,0-.6.6,2.92,2.92,0,0,0-.2.9,1.4,1.4,0,0,0,.3.9,2.177,2.177,0,0,0,.8.5,3.5,3.5,0,0,0,1.2.3c.4.1.9.2,1.3.3a6.468,6.468,0,0,1,1.3.4,3.38,3.38,0,0,1,1.2.6,3.239,3.239,0,0,1,.8.9,2.649,2.649,0,0,1,.3,1.4,2.934,2.934,0,0,1-.4,1.6,5.241,5.241,0,0,1-1,1.1,3.506,3.506,0,0,1-1.4.6,8.753,8.753,0,0,1-1.6.2A11.018,11.018,0,0,1,288,47a5.226,5.226,0,0,1-1.5-.7,2.94,2.94,0,0,1-1-1.2,4.776,4.776,0,0,1-.4-1.8h1.4a2.133,2.133,0,0,0,.3,1.2,5.5,5.5,0,0,0,.7.9,3.7,3.7,0,0,0,1.1.5,5.019,5.019,0,0,0,1.2.2,3.4,3.4,0,0,0,1-.1,9.439,9.439,0,0,0,.9-.3,4.351,4.351,0,0,0,.7-.6,1.817,1.817,0,0,0,0-2,5.548,5.548,0,0,0-.8-.6,3.374,3.374,0,0,0-1.2-.4c-.4-.1-.9-.2-1.3-.3a4.951,4.951,0,0,1-1.3-.4,6.118,6.118,0,0,1-1.2-.5,2.047,2.047,0,0,1-.8-.8,2.5,2.5,0,0,1-.3-1.3,2.41,2.41,0,0,1,.4-1.5,2.189,2.189,0,0,1,.9-1,3.1,3.1,0,0,1,1.3-.6,6.1,6.1,0,0,1,3.1,0,3.293,3.293,0,0,1,1.3.7,3.126,3.126,0,0,1,.9,1.1,7.491,7.491,0,0,1,.4,1.6h-1.4A3.153,3.153,0,0,0,291.4,37.1Z" transform="translate(-232.9 -35.3)" fill="#222"/>
      <path id="Контур_57" data-name="Контур 57" d="M303.7,37.2a3.7,3.7,0,0,0-2.1-.6,3.424,3.424,0,0,0-1.8.4,4,4,0,0,0-1.2,1,5.226,5.226,0,0,0-.7,1.5,4.953,4.953,0,0,0-.2,1.7,8.969,8.969,0,0,0,.2,1.8,3.479,3.479,0,0,0,.7,1.5,2.94,2.94,0,0,0,1.2,1,3.425,3.425,0,0,0,1.8.4,5.066,5.066,0,0,0,1.3-.2,3.512,3.512,0,0,0,1.7-1.7,2.768,2.768,0,0,0,.3-1.3h1.5a4.9,4.9,0,0,1-1.5,3.4,4.794,4.794,0,0,1-3.5,1.2,5.214,5.214,0,0,1-2.3-.5,3.435,3.435,0,0,1-1.6-1.3,5.735,5.735,0,0,1-1-1.9,8.523,8.523,0,0,1-.3-2.3,5.867,5.867,0,0,1,.4-2.3,5.735,5.735,0,0,1,1-1.9,5.5,5.5,0,0,1,1.7-1.3,5.932,5.932,0,0,1,2.3-.5,8.807,8.807,0,0,1,1.7.2,3.694,3.694,0,0,1,1.4.7,2.94,2.94,0,0,1,1,1.2,4.284,4.284,0,0,1,.5,1.6h-1.5A2.1,2.1,0,0,0,303.7,37.2Z" transform="translate(-232.9 -35.3)" fill="#222"/>
      <path id="Контур_58" data-name="Контур 58" d="M314,35.6,318.5,47h-1.7l-1.2-3.4h-4.8L309.5,47h-1.6l4.4-11.4Zm1,6.7L313.1,37h0l-1.9,5.3Z" transform="translate(-232.9 -35.3)" fill="#222"/>
      <path id="Контур_59" data-name="Контур 59" d="M321.9,35.6V45.7h6V47h-7.6V35.6Z" transform="translate(-232.9 -35.3)" fill="#222"/>
      <path id="Контур_60" data-name="Контур 60" d="M334.8,35.6,339.3,47h-1.7l-1.2-3.4h-4.8L330.3,47h-1.6l4.4-11.4Zm1.1,6.7L334,37h0l-1.9,5.3Z" transform="translate(-232.9 -35.3)" fill="#222"/>
      <path id="Контур_61" data-name="Контур 61" d="M338.5,36.9V35.6h9.1v1.3h-3.8V47h-1.5V36.9Z" transform="translate(-232.9 -35.3)" fill="#222"/>
      <path id="Контур_62" data-name="Контур 62" d="M349.4,39a5.735,5.735,0,0,1,1-1.9,4.31,4.31,0,0,1,1.7-1.3,6.01,6.01,0,0,1,4.8,0,4.532,4.532,0,0,1,1.7,1.3,5.734,5.734,0,0,1,1,1.9,8.217,8.217,0,0,1,0,4.4,5.734,5.734,0,0,1-1,1.9,4.532,4.532,0,0,1-1.7,1.3,6.01,6.01,0,0,1-4.8,0,4.532,4.532,0,0,1-1.7-1.3,4.982,4.982,0,0,1-1-1.9,8.329,8.329,0,0,1-.3-2.2A8.919,8.919,0,0,1,349.4,39Zm1.4,4a5.226,5.226,0,0,0,.7,1.5,4.263,4.263,0,0,0,1.2,1.1,4.25,4.25,0,0,0,3.6,0,3.179,3.179,0,0,0,1.2-1.1,4.128,4.128,0,0,0,.7-1.5,9.852,9.852,0,0,0,.2-1.7,9.852,9.852,0,0,0-.2-1.7,5.226,5.226,0,0,0-.7-1.5,4.263,4.263,0,0,0-1.2-1.1,4.25,4.25,0,0,0-3.6,0,3.179,3.179,0,0,0-1.2,1.1,4.128,4.128,0,0,0-.7,1.5,9.852,9.852,0,0,0-.2,1.7A9.855,9.855,0,0,0,350.8,43Z" transform="translate(-232.9 -35.3)" fill="#222"/>
      <path id="Контур_63" data-name="Контур 63" d="M368.1,35.6a4.237,4.237,0,0,1,2.6.8,2.5,2.5,0,0,1,.9,2.2,3.453,3.453,0,0,1-.5,1.8,2.492,2.492,0,0,1-1.5,1.1h0a6.889,6.889,0,0,1,.8.3,1.205,1.205,0,0,1,.5.5,4.872,4.872,0,0,1,.3.7,2.2,2.2,0,0,1,.1.8v.8a1.949,1.949,0,0,0,.1.8c.1.2.1.5.2.8a1.612,1.612,0,0,0,.4.7h-1.7a.764.764,0,0,1-.2-.5c0-.2-.1-.4-.1-.7v-.8a1.949,1.949,0,0,0-.1-.8,2.353,2.353,0,0,0-.2-.8c-.1-.2-.2-.5-.3-.7a1,1,0,0,0-.5-.4,2,2,0,0,0-.9-.2h-3.7v5h-1.5V35.6Zm.3,5.2a6.889,6.889,0,0,0,.8-.3c.2-.1.4-.4.6-.6a2.958,2.958,0,0,0,.2-1,2.168,2.168,0,0,0-.5-1.4c-.3-.4-.8-.5-1.6-.5h-3.8v4h3.2A2.344,2.344,0,0,1,368.4,40.8Z" transform="translate(-232.9 -35.3)" fill="#222"/>
      <path id="Контур_64" data-name="Контур 64" d="M380.2,37.1a3.077,3.077,0,0,0-1.9-.6,2.769,2.769,0,0,0-.9.1,6.889,6.889,0,0,0-.8.3,1.7,1.7,0,0,0-.6.6,2.92,2.92,0,0,0-.2.9,1.4,1.4,0,0,0,.3.9,2.177,2.177,0,0,0,.8.5,3.5,3.5,0,0,0,1.2.3c.4.1.9.2,1.3.3a6.468,6.468,0,0,1,1.3.4,3.38,3.38,0,0,1,1.2.6,3.45,3.45,0,0,1,.8.9,2.9,2.9,0,0,1,.3,1.4,2.934,2.934,0,0,1-.4,1.6,5.241,5.241,0,0,1-1,1.1,3.506,3.506,0,0,1-1.4.6,8.753,8.753,0,0,1-1.6.2,11.018,11.018,0,0,1-1.8-.2,5.226,5.226,0,0,1-1.5-.7,2.94,2.94,0,0,1-1-1.2,4.776,4.776,0,0,1-.4-1.8h1.4a2.133,2.133,0,0,0,.3,1.2,5.494,5.494,0,0,0,.7.9,3.7,3.7,0,0,0,1.1.5,5.019,5.019,0,0,0,1.2.2,3.4,3.4,0,0,0,1-.1,9.439,9.439,0,0,0,.9-.3,4.351,4.351,0,0,0,.7-.6,1.817,1.817,0,0,0,0-2,2.407,2.407,0,0,0-.8-.6,3.374,3.374,0,0,0-1.2-.4c-.4-.1-.9-.2-1.3-.3a4.951,4.951,0,0,1-1.3-.4c-.4-.2-.8-.3-1.2-.5a3.043,3.043,0,0,1-.8-.8,2.5,2.5,0,0,1-.3-1.3,2.41,2.41,0,0,1,.4-1.5,2.189,2.189,0,0,1,.9-1,3.1,3.1,0,0,1,1.3-.6,6.1,6.1,0,0,1,3.1,0,3.293,3.293,0,0,1,1.3.7,3.126,3.126,0,0,1,.9,1.1,6.222,6.222,0,0,1,.4,1.6H381A2.346,2.346,0,0,0,380.2,37.1Z" transform="translate(-232.9 -35.3)" fill="#222"/>
    </g>
    <rect id="Прямоугольник_86" data-name="Прямоугольник 86" width="1.9" height="44" transform="translate(406.818 36)" fill="#222"/>
  </g>
</svg>
