<svg xmlns="http://www.w3.org/2000/svg" width="84.004" height="84" viewBox="0 0 84.004 84">
  <g id="weight" transform="translate(-490.612 494.779)">
    <path id="path145" d="M490.612-494.779v84h84v-84Z" fill="none" fill-rule="evenodd"/>
    <path id="path147" d="M493.613-423.777l16-47h47l16,47Z" fill="none" stroke="#fe0617" stroke-linecap="round" stroke-linejoin="round" stroke-miterlimit="79.84" stroke-width="2" fill-rule="evenodd"/>
    <path id="path149" d="M533.115-470.786a7.5,7.5,0,0,1-7.492-7.494,7.5,7.5,0,0,1,7.492-7.494,7.5,7.5,0,0,1,7.492,7.494A7.5,7.5,0,0,1,533.115-470.786Z" fill="none" stroke="#fe0617" stroke-linecap="round" stroke-linejoin="round" stroke-miterlimit="79.84" stroke-width="2" fill-rule="evenodd"/>
    <path id="path151" d="M518.114-434.278h30" fill="none" stroke="#fe0617" stroke-linecap="round" stroke-linejoin="round" stroke-miterlimit="79.84" stroke-width="1" fill-rule="evenodd"/>
    <path id="path153" d="M525.114-436.278v-22" fill="none" stroke="#fe0617" stroke-linecap="round" stroke-linejoin="round" stroke-miterlimit="79.84" stroke-width="1" fill-rule="evenodd"/>
    <path id="path155" d="M530.115-453.279l-5-5" fill="none" stroke="#fe0617" stroke-linecap="round" stroke-linejoin="round" stroke-miterlimit="79.84" stroke-width="1" fill-rule="evenodd"/>
    <path id="path157" d="M520.114-453.279l5-5" fill="none" stroke="#fe0617" stroke-linecap="round" stroke-linejoin="round" stroke-miterlimit="79.84" stroke-width="1" fill-rule="evenodd"/>
    <path id="path159" d="M541.115-436.278v-22" fill="none" stroke="#fe0617" stroke-linecap="round" stroke-linejoin="round" stroke-miterlimit="79.84" stroke-width="1" fill-rule="evenodd"/>
    <path id="path161" d="M546.115-453.279l-5-5" fill="none" stroke="#fe0617" stroke-linecap="round" stroke-linejoin="round" stroke-miterlimit="79.84" stroke-width="1" fill-rule="evenodd"/>
    <path id="path163" d="M536.115-453.279l5-5" fill="none" stroke="#fe0617" stroke-linecap="round" stroke-linejoin="round" stroke-miterlimit="79.84" stroke-width="1" fill-rule="evenodd"/>
  </g>
</svg>
